[img]http://img200.imageshack.us/img200/8689/promx.jpg[/img]
[code]
Prom 2011 R5 LiNE XViD - IMAGiNE


Ripper ...........: IMAGiNE                                  IMDB Rating.......: 3.8/10                    
Video Codec.......: XVID                                     Release Date......: 04/08/11
Audio Codec.......: MP3                                      Theatre Date......: 29/04/11
Audio Bitrate.....: 128                                      Runtime...........: 1h 39mn
Subtitles.........: NIL                                      Language..........: ENGLISH
Resolution........: 720 x 384                                IMDb URL..........: http://www.imdb.com/title/tt1604171/

DETAILS:

Video
ID                               : 0
Format                           : MPEG-4 Visual
Format profile                   : Advanced Simple@L5
Format settings, BVOP            : 2
Format settings, QPel            : No
Format settings, GMC             : No warppoints
Format settings, Matrix          : Default (MPEG)
Muxing mode                      : Packed bitstream
Codec ID                         : XVID
Codec ID/Hint                    : XviD
Duration                         : 1h 39mn
Bit rate                         : 1 834 Kbps
Width                            : 720 pixels
Height                           : 384 pixels
Display aspect ratio             : 1.875
Frame rate                       : 25.000 fps
Color space                      : YUV
Chroma subsampling               : 4:2:0
Bit depth                        : 8 bits
Scan type                        : Progressive
Compression mode                 : Lossy
Bits/(Pixel*Frame)               : 0.265
Stream size                      : 1.28 GiB (93%)
Writing library                  : XviD 64

Audio
ID                               : 1
Format                           : MPEG Audio
Format version                   : Version 1
Format profile                   : Layer 3
Mode                             : Joint stereo
Mode extension                   : MS Stereo
Codec ID                         : 55
Codec ID/Hint                    : MP3
Duration                         : 1h 39mn
Bit rate mode                    : Constant
Bit rate                         : 128 Kbps
Channel(s)                       : 2 channels
Sampling rate                    : 44.1 KHz
Compression mode                 : Lossy
Stream size                      : 91.1 MiB (6%)
Alignment                        : Split accross interleaves
Interleave, duration             : 40 ms (1.00 video frame)

Plot:
A group of teenagers get ready for their high school prom.

SOURCES:
VIDEO: .............. Vupusknoy.2011.XviD.DVDRip Thanks 
AUDIO: .............. Thanks Matey 

NOTES:
IMAGiNE bringing you another release..........
Prom R5.........
Well here we have another one 
This time around we had to recode the russian dvdrip,with retail around the corner and no dvdr5 insight....
we opted to just go with thisVideo was nice enough, so we made a script to crop the lines at top and bottom and sharpened it abit....
Then we made some adjustments to the colors as there was a green tint Audio is nice LiNE we filtered syncedand muxed to our encode 
Enjoy Folks!
[/code]
Screens:
[img]http://img41.imageshack.us/img41/5376/35044085.png[/img]
[img]http://img692.imageshack.us/img692/7427/24295354.png[/img]
[img]http://img543.imageshack.us/img543/772/82113666.png[/img]
[img]http://img695.imageshack.us/img695/9729/46595129.png[/img]